<?xml version="1.0" standalone="no"?><svg xmlns="http://www.w3.org/2000/svg" viewBox="0 0 1440 320"><path fill="#0099ff" fill-opacity="1" d="M0,288L34.3,240C68.6,192,137,96,206,74.7C274.3,53,343,107,411,154.7C480,203,549,245,617,234.7C685.7,224,754,160,823,122.7C891.4,85,960,75,1029,69.3C1097.1,64,1166,64,1234,85.3C1302.9,107,1371,149,1406,170.7L1440,192L1440,320L1405.7,320C1371.4,320,1303,320,1234,320C1165.7,320,1097,320,1029,320C960,320,891,320,823,320C754.3,320,686,320,617,320C548.6,320,480,320,411,320C342.9,320,274,320,206,320C137.1,320,69,320,34,320L0,320Z"></path></svg>